<svg xmlns="http://www.w3.org/2000/svg" xmlns:xlink="http://www.w3.org/1999/xlink" version="1.1" width="256" height="256" viewBox="0 0 256 256" xml:space="preserve">

<defs>
</defs>
<g style="stroke: none; stroke-width: 0; stroke-dasharray: none; stroke-linecap: butt; stroke-linejoin: miter; stroke-miterlimit: 10; fill: none; fill-rule: nonzero; opacity: 1;" transform="translate(1.4065934065934016 1.4065934065934016) scale(2.81 2.81)" >
	<path d="M 45 0 C 28.967 0 14.902 8.392 6.932 21.015 c 2.729 1.97 6.069 3.145 9.693 3.145 h 32.399 c 17.08 0 32.123 8.704 40.948 21.915 C 89.981 45.716 90 45.36 90 45 C 90 20.147 69.853 0 45 0 z" style="stroke: none; stroke-width: 1; stroke-dasharray: none; stroke-linecap: butt; stroke-linejoin: miter; stroke-miterlimit: 10; fill: rgb(8,225,220); fill-rule: nonzero; opacity: 1;" transform=" matrix(1 0 0 1 0 0) " stroke-linecap="round" />
	<path d="M 90 45 c 0 -1.207 -0.062 -2.399 -0.155 -3.583 C 81.002 27.735 66.02 20.885 49.024 20.885 H 16.625 c -3.159 0 -6.101 -0.494 -8.614 -1.504 C 3.387 26.046 0.51 34.014 0.063 42.629 c 9.023 11.127 22.794 18.247 38.236 18.247 h 0.744 c 9.038 0 13.101 3.942 13.329 12.925 c 0.004 -0.143 0.022 -0.282 0.022 -0.426 c 0 8.417 -3.516 15.355 -11.172 16.456 C 42.469 89.934 43.726 90 45 90 C 69.853 90 90 69.853 90 45 z" style="stroke: none; stroke-width: 1; stroke-dasharray: none; stroke-linecap: butt; stroke-linejoin: miter; stroke-miterlimit: 10; fill: rgb(8,213,208); fill-rule: nonzero; opacity: 1;" transform=" matrix(1 0 0 1 0 0) " stroke-linecap="round" />
	<path d="M 41.27 89.834 c 7.988 -1.072 14.169 -7.802 14.378 -16.034 c -0.228 -8.983 -7.566 -16.2 -16.604 -16.2 h -0.744 c -15.296 0 -28.947 -6.992 -37.973 -17.938 C 0.119 41.414 0 43.193 0 45 C 0 68.595 18.164 87.936 41.27 89.834 z" style="stroke: none; stroke-width: 1; stroke-dasharray: none; stroke-linecap: butt; stroke-linejoin: miter; stroke-miterlimit: 10; fill: rgb(7,201,196); fill-rule: nonzero; opacity: 1;" transform=" matrix(1 0 0 1 0 0) " stroke-linecap="round" />
	<path d="M 66.942 32.519 c -2.858 0 -5.495 -0.947 -7.612 -2.544 c -2.428 -1.831 -4.173 -4.517 -4.789 -7.612 c -0.153 -0.765 -0.235 -1.554 -0.243 -2.363 h -8.164 v 22.308 l -0.01 12.219 c 0 3.267 -2.127 6.037 -5.076 7.011 c -0.856 0.283 -1.78 0.417 -2.743 0.364 c -1.228 -0.067 -2.379 -0.438 -3.38 -1.037 c -2.129 -1.273 -3.573 -3.584 -3.612 -6.227 c -0.062 -4.131 3.278 -7.498 7.405 -7.498 c 0.815 0 1.597 0.133 2.33 0.374 v -6.097 v -2.192 c -0.773 -0.114 -1.559 -0.174 -2.354 -0.174 c -4.518 0 -8.743 1.878 -11.763 5.261 c -2.283 2.557 -3.652 5.818 -3.863 9.239 c -0.277 4.493 1.367 8.764 4.556 11.916 c 0.468 0.463 0.961 0.892 1.475 1.288 C 31.83 68.859 35.173 70 38.693 70 c 0.795 0 1.582 -0.059 2.354 -0.173 c 3.288 -0.487 6.322 -1.992 8.717 -4.359 c 2.942 -2.908 4.568 -6.768 4.585 -10.877 l -0.042 -18.247 c 1.403 1.083 2.938 1.979 4.585 2.674 c 2.562 1.081 5.278 1.628 8.073 1.628 v -5.928 v -2.199 C 66.967 32.519 66.943 32.519 66.942 32.519 L 66.942 32.519 z" style="stroke: none; stroke-width: 1; stroke-dasharray: none; stroke-linecap: butt; stroke-linejoin: miter; stroke-miterlimit: 10; fill: rgb(255,255,255); fill-rule: nonzero; opacity: 1;" transform=" matrix(1 0 0 1 0 0) " stroke-linecap="round" />
	<path d="M 45.011 44.787 c 0 0.144 -0.018 0.283 -0.021 0.426 v 0 C 44.993 45.07 45.011 44.931 45.011 44.787 z" style="stroke: none; stroke-width: 1; stroke-dasharray: none; stroke-linecap: butt; stroke-linejoin: miter; stroke-miterlimit: 10; fill: rgb(255,255,255); fill-rule: nonzero; opacity: 1;" transform=" matrix(1 0 0 1 0 0) " stroke-linecap="round" />
</g>
</svg>