<?xml version="1.0" encoding="UTF-8"?>
<svg width="277px" height="100px" viewBox="0 0 277 100" version="1.1" xmlns="http://www.w3.org/2000/svg" xmlns:xlink="http://www.w3.org/1999/xlink">
    <!-- Generator: Sketch 54.1 (76490) - https://sketchapp.com -->
    <title>logo/lfwa-logo-horizontal-nostrapline-fullcolour</title>
    <desc>Created with Sketch.</desc>
    <defs>
        <filter x="-10.8%" y="-31.0%" width="122.0%" height="163.0%" filterUnits="objectBoundingBox" id="filter-1">
            <feOffset dx="2" dy="2" in="SourceAlpha" result="shadowOffsetOuter1"></feOffset>
            <feGaussianBlur stdDeviation="2" in="shadowOffsetOuter1" result="shadowBlurOuter1"></feGaussianBlur>
            <feColorMatrix values="0 0 0 0 0   0 0 0 0 0   0 0 0 0 0  0 0 0 0.156113418 0" type="matrix" in="shadowBlurOuter1" result="shadowMatrixOuter1"></feColorMatrix>
            <feMerge>
                <feMergeNode in="shadowMatrixOuter1"></feMergeNode>
                <feMergeNode in="SourceGraphic"></feMergeNode>
            </feMerge>
        </filter>
        <radialGradient cx="45.3481658%" cy="0%" fx="45.3481658%" fy="0%" r="100%" gradientTransform="translate(0.453482,0.000000),scale(0.271470,1.000000),rotate(90.000000),scale(1.000000,2.530206),translate(-0.453482,-0.000000)" id="radialGradient-2">
            <stop stop-color="#FFFFFF" stop-opacity="0" offset="0%"></stop>
            <stop stop-color="#000000" offset="100%"></stop>
        </radialGradient>
        <rect id="path-3" x="0" y="0" width="109.511111" height="29.7290323" rx="14.8645161"></rect>
    </defs>
    <g id="logo/lfwa-logo-horizontal-nostrapline-fullcolour" stroke="none" stroke-width="1" fill="none" fill-rule="evenodd">
        <g id="Group-9" transform="translate(30.000000, 14.000000)">
            <g id="Group-3" transform="translate(0.000000, 0.674157)" fill="#2F2E2E">
                <g id="Group-13-Copy">
                    <path d="M72.3961978,46.5860185 C71.6228868,43.8033635 70.9816522,41.4779367 70.9816522,41.4779367 C66.1266737,55.8741118 58.9855628,57.7985157 57.0944872,58.0651512 C55.62504,58.2724695 55.0371439,56.7599794 54.7778757,56.2218464 C53.2625143,57.9064535 50.9267556,58.7643156 49.5040041,58.1478062 C46.9904503,57.0587044 45.9906947,54.407714 45.3387143,51.9224227 C45.279319,51.6958506 45.275216,51.646841 45.204098,51.3374195 C44.9147413,51.2269534 44.4022616,50.9558449 44.1424072,50.854714 C44.5835735,54.696715 45.9854195,59.1136061 47.9036528,63.649715 C50.9373061,70.8234339 55.265933,71.087016 54.3152176,70.9861379 C51.5599797,70.6938113 47.1614071,71.3008883 42.5592493,60.2606637 C40.8756665,56.2218464 40.358693,52.7413883 39.5865543,48.9649279 C38.8960841,48.6210829 38.8738109,48.5390113 38.176307,48.2072243 C36.9434641,47.6210541 32.7936092,44.7226821 28.1539386,41.7603252 C25.8808966,46.0669448 23.6826849,50.0816462 22.1053884,52.6324782 C18.6424869,58.2326006 15.4484272,60.2715547 9.89125574,58.2919177 C3.16493496,55.8956993 -1.68781623,45.9716484 0.553867375,39.5533383 C2.89218555,32.8586686 10.3693487,28.9816608 17.6386284,31.2224877 C19.744035,31.8714756 21.7527289,33.1585605 23.8706397,34.2307423 C24.1803158,33.5504427 24.4870612,32.8820065 24.7906805,32.2310737 C33.0186861,14.5952098 35.9179185,8.51724398 37.4043637,5.35807091 C39.0072549,1.95112719 40.7504284,-0.847864368 43.9681289,0.237153272 C46.058296,0.941957705 46.0473547,3.2004825 45.527646,7.32000996 C45.2545058,9.4849887 43.764153,18.1808829 43.1145171,30.2238202 C42.8304357,35.4921556 42.8861188,40.3905853 43.4054368,45.0167395 C44.0548773,45.4004534 44.4133982,45.6153565 44.4133982,45.6143841 C44.1703465,43.7955842 43.841914,37.3858313 44.4809994,28.8727506 C45.391662,16.7432686 48.3706092,13.3619965 48.958896,12.4778793 C49.5471829,11.5935675 53.8281372,8.72047815 56.4204289,14.4353452 C59.0127205,20.1502123 57.8781533,26.6260892 57.2175761,31.4305839 C56.5569989,36.2348841 53.5249087,44.1120071 50.0743161,49.3663397 C49.9942106,49.4884747 49.9115652,49.6053587 49.8265752,49.7173806 C49.8265752,49.7173806 49.3240598,52.8477702 51.0885296,53.5383774 C51.0885296,53.5383774 51.8981812,53.5663829 52.8912938,52.867024 C52.8117745,52.1017355 51.3870691,40.3831949 61.2306655,33.7879058 C62.5762423,32.8862851 64.3123821,32.5632497 65.8580272,32.8510838 C69.8343853,33.5910895 67.3337266,40.1638187 65.8580272,43.1903548 C64.3823279,46.2166963 59.2583122,52.1169052 58.1176882,53.0972912 C57.9422377,53.2482096 58.4281458,54.4201609 60.0347493,53.0381686 C62.0131593,51.3360581 68.4716152,44.5898505 69.4012296,37.4799608 C69.6718298,35.4118343 68.6158051,33.4100264 68.6158051,33.4100264 C68.6158051,33.4100264 67.698695,29.8967007 69.5124004,29.2498521 C71.030497,28.7086074 72.716229,29.3346464 73.2789212,30.9027585 C73.6075491,31.8185764 74.5271991,35.54311 75.5752133,39.7853559 C77.6743677,35.0841314 80.1574424,29.2978892 81.9344165,25.1517177 C84.4421089,19.3011019 89.0157414,23.9924077 89.0157414,23.9924077 C89.4234978,24.5355973 90.4046923,25.2211479 89.2722743,25.6888782 C85.2240166,27.3608439 81.9285551,36.6071235 76.9891728,45.4728009 C77.8330157,48.8239282 78.6305537,51.8734131 79.1559285,53.5027872 C79.4507557,54.4164658 80.1898753,53.9252031 80.3235147,53.8446873 C80.4489482,53.7692281 80.2191822,53.3526467 80.1689698,52.8621619 C79.8561676,49.8111211 79.450365,48.8519336 80.2799452,44.8055316 C80.8770241,41.8935457 82.1217852,38.176208 85.4793773,35.3334579 C86.6252765,34.3631849 89.0540357,32.7995459 91.4487989,32.5990345 C93.7632613,32.4051355 95.1828868,33.5959516 95.3182846,35.8486419 C95.3907703,37.0532663 94.8847381,37.6765825 94.1805913,38.5513647 C94.0995089,38.6519121 95.3343057,39.5231935 94.9548792,40.7490164 C94.1508937,43.3455518 92.6570241,45.9339188 91.4958853,49.9466754 C90.8736025,52.0964845 92.1504057,53.8476046 92.8483003,54.0313905 C94.4140695,54.4438878 95.5439476,53.2305117 96.213903,52.8761647 C97.305096,52.2989407 98.0594552,52.3996826 97.2789152,53.4508603 C96.4985705,54.502038 93.7122673,57.6477918 90.6114035,58.0311167 C89.2068222,58.2047896 87.6344102,54.9223146 87.7737156,52.9473453 C87.7834845,52.8079013 86.2034527,56.0417557 83.3987838,57.7222786 C82.0639529,58.522185 81.0091005,56.0738453 80.9967916,56.0952383 C79.0767999,59.4397532 75.9812113,58.8214935 74.9877079,55.7418637 C74.8122574,55.1975073 74.2589434,53.2511269 73.617318,50.9638187 C72.8162632,52.1289631 71.9733972,53.2542386 71.0818817,54.3176687 C67.5294966,58.5556359 63.4048456,58.1662821 62.4414306,57.8636673 C61.1599382,57.4612831 61.9414552,57.5808898 62.8824015,57.0258369 C64.4952571,56.0744287 68.1281385,53.8281563 71.9468256,47.4057621 C72.0736267,47.1926093 72.2244595,46.9168332 72.3961978,46.5860185 Z M22.4,37.8260685 C19.3676942,36.1279688 16.5844317,34.7052578 14.6741087,34.4844383 C1.01930167,32.9058432 -0.528729589,42.0153795 1.56250147,47.5771352 C3.00790389,51.4208412 7.0401475,54.0395761 9.83074062,54.2380985 C14.4024791,54.5635578 18.6057047,46.0959432 22.4,37.8260685 Z M92.6351294,38.2921348 C92.6351294,38.2921348 84.3147236,38.8485585 84.8223146,51.0501476 C84.8356044,51.3708733 94.1410421,38.7975034 92.6351294,38.2921348 Z M56.8,50.258427 C56.8,50.258427 62.7198173,44.0455398 64.4879588,39.6644828 C65.0100165,38.3710012 64.9161004,38.0506416 63.9076149,38.4583172 C63.9076149,38.4583172 58.2817455,41.0976702 56.8,50.258427 Z M53.5306368,19.9438202 C53.5306368,19.9438202 54.5468429,31.9660473 48.8,43.8764045 C48.8,43.8764045 51.2370718,25.2817759 53.5306368,19.9438202 Z M39.2,42.2808989 C37.849974,31.430482 38.6439784,21.5393258 38.6439784,21.5393258 C38.6439784,21.5393258 34.695808,29.3729343 30.4,37.4822747 C33.6942143,39.2227113 36.7579945,40.9107473 39.2,42.2808989 Z" id="Fill-16"></path>
                </g>
            </g>
            <g id="tag" transform="translate(112.000000, 26.000000)">
                <g id="Group" filter="url(#filter-1)">
                    <path d="M15.9288889,0 L95.5733333,0 C104.370616,-1.54027329e-15 111.502222,7.09874193 111.502222,15.8554839 C111.502222,24.6122258 104.370616,31.7109677 95.5733333,31.7109677 L15.9288889,31.7109677 C7.13160647,31.7109677 1.1052887e-15,24.6122258 0,15.8554839 C-1.1052887e-15,7.09874193 7.13160647,3.41060513e-15 15.9288889,0 Z" id="Path" fill="#FFFFFF" fill-rule="nonzero"></path>
                    <g id="Group-4" transform="translate(0.995556, 0.990968)">
                        <path d="M14.9333333,0 L94.5777778,0 C102.82496,0 109.511111,6.65504206 109.511111,14.8645161 C109.511111,23.0739902 102.82496,29.7290323 94.5777778,29.7290323 L14.9333333,29.7290323 C6.68585244,29.7290323 0,23.0739902 0,14.8645161 C0,6.65504206 6.68585244,0 14.9333333,0 Z" id="Fill-1" fill="#FF0000"></path>
                        <path d="M22.9216711,0 C17.0978702,8.61715819 13.1839431,18.6175092 11.7857849,29.3981481 C5.04975644,27.9597585 1.70530257e-13,21.9991866 1.70530257e-13,14.8645161 C1.70530257e-13,6.65504206 6.68585244,0 14.9333333,0 L22.9216711,0 Z" id="Fill-3" fill="#FFFFFF"></path>
                        <path d="M14.8088889,0.000594580645 C9.58262044,7.29481084 5.753216,15.6475788 3.710336,24.6707365 C1.40054756,22.0535907 0,18.6218694 0,14.8645161 C0,6.69636542 6.618752,0.0670885161 14.8088889,0.000594580645 Z" id="Fill-2" fill="#0B5EAB"></path>
                        <mask id="mask-4" fill="white">
                            <use xlink:href="#path-3"></use>
                        </mask>
                        <use id="Rectangle" fill="url(#radialGradient-2)" opacity="0.219796317" style="mix-blend-mode: multiply;" xlink:href="#path-3"></use>
                    </g>
                    <path d="M36.2676215,14.2289494 L35.5970499,17.8422824 L36.4592322,17.8422824 C36.753006,17.8422824 36.9989101,17.94876 37.1969005,18.1617152 C37.394891,18.3746278 37.4938862,18.6341722 37.4938862,18.9402634 C37.4938862,19.2330554 37.394891,19.4792582 37.1969005,19.6789144 C36.9989101,19.8785279 36.753006,19.978356 36.4592322,19.978356 L35.1946894,19.978356 L34.7348237,22.4338197 C34.6837421,22.6734156 34.5719875,22.8697044 34.3995599,23.0227712 C34.2270882,23.1757955 34.0067469,23.2523502 33.7385359,23.2523502 C33.4191993,23.2523502 33.1541561,23.1491974 32.9433623,22.9428917 C32.7326125,22.7366287 32.6272376,22.480409 32.6272376,22.1743179 C32.6272376,22.0545412 32.6336173,21.9613627 32.6464207,21.8948248 L33.0104591,19.978356 L31.3051896,19.978356 L30.8262288,22.4338197 C30.7879066,22.6734156 30.6793199,22.8697044 30.5004685,23.0227712 C30.3216612,23.1757955 30.1172911,23.2523502 29.8873582,23.2523502 C29.5680217,23.2523502 29.3061903,23.1491974 29.1018202,22.9428917 C28.8974501,22.7366287 28.7952431,22.480409 28.7952431,22.1743179 C28.7952431,22.0545412 28.8016227,21.9613627 28.8144261,21.8948248 L29.1784645,19.978356 L28.9102095,19.978356 C28.6164357,19.978356 28.3705316,19.8752031 28.1725412,19.6689401 C27.9745508,19.4626344 27.8755556,19.2064573 27.8755556,18.9003236 C27.8755556,18.5942325 27.9745508,18.3413802 28.1725412,18.141724 C28.3705316,17.9421105 28.6164357,17.8422824 28.9102095,17.8422824 L29.580825,17.8422824 L30.2513966,14.2289494 L29.293431,14.2289494 C28.9996132,14.2289494 28.7537531,14.1224718 28.5557626,13.9095166 C28.3577722,13.6966041 28.258777,13.4370596 28.258777,13.1309685 C28.258777,12.8381764 28.3577722,12.5919736 28.5557626,12.3923175 C28.7537531,12.1927039 28.9996132,12.0928759 29.293431,12.0928759 L30.6537571,12.0928759 L31.0944398,9.73719759 C31.1455213,9.49764431 31.2573199,9.30135555 31.4297476,9.14828867 C31.6021752,8.9952218 31.8161369,8.91870968 32.0715885,8.91870968 C32.3909251,8.91870968 32.6559683,9.02518727 32.8667621,9.23814246 C33.0775119,9.45105503 33.1828868,9.71724902 33.1828868,10.0366392 C33.1828868,10.1564158 33.1765071,10.2495944 33.1637037,10.3161322 L32.8188484,12.0928759 L34.4857517,12.0928759 L34.9264344,9.73719759 C34.9647565,9.49764431 35.0733433,9.30135555 35.2521506,9.14828867 C35.431002,8.9952218 35.6545112,8.91870968 35.9227662,8.91870968 C36.2421027,8.91870968 36.5071459,9.02186251 36.7178957,9.22812556 C36.9286455,9.43443123 37.0340204,9.69060831 37.0340204,9.99674205 C37.0340204,10.1165187 37.0276407,10.2096546 37.0148813,10.2762351 L36.669982,12.0928759 L36.8424537,12.0928759 C37.1362275,12.0928759 37.3820876,12.1960287 37.580078,12.4022917 C37.7780684,12.6085974 37.8770636,12.8647745 37.8770636,13.1709082 C37.8770636,13.4769994 37.7780684,13.7298517 37.580078,13.9295078 C37.3820876,14.1291213 37.1362275,14.2289494 36.8424537,14.2289494 L36.2676215,14.2289494 Z M33.4128196,17.8422824 L34.0833912,14.2289494 L32.4164878,14.2289494 L31.7075501,17.8422824 L33.4128196,17.8422824 Z M42.3360077,23.2523502 C41.847787,23.2523502 41.4726901,23.104283 41.210758,22.8081916 C40.9487848,22.5121003 40.8177778,22.0814337 40.8177778,21.5161488 L40.8177778,10.7356476 C40.8177778,10.1838547 40.9636329,9.74305835 41.255384,9.41334474 C41.5471352,9.08358803 41.9430686,8.91870968 42.4431842,8.91870968 C42.9552356,8.91870968 43.3601106,9.08358803 43.6578092,9.41334474 C43.9554667,9.74305835 44.104316,10.1838547 44.104316,10.7356476 L44.104316,20.2442793 L48.2125401,20.2442793 C49.2484967,20.2442793 49.7664955,20.7490011 49.7664955,21.7584015 C49.7664955,22.2698477 49.6384827,22.6467186 49.382457,22.8889713 C49.1264313,23.1312239 48.7364453,23.2523502 48.2125401,23.2523502 L42.3360077,23.2523502 Z M53.3455476,23.2523502 C52.8640536,23.2523502 52.4764879,23.0843461 52.182891,22.7483378 C51.8892942,22.4123726 51.7425362,21.9688383 51.7425362,21.4178209 L51.7425362,10.6322829 C51.7425362,10.0812655 51.8716978,9.65787619 52.1300614,9.36220098 C52.388425,9.06652576 52.7583539,8.91870968 53.2398479,8.91870968 L59.1586686,8.91870968 C59.6871672,8.91870968 60.0746924,9.03630826 60.3213251,9.27150544 C60.5679174,9.50670261 60.6912539,9.87964337 60.6912539,10.3903708 C60.6912539,10.8876681 60.5650049,11.2505364 60.3125067,11.4790186 C60.0600085,11.7075007 59.6753958,11.8216988 59.1586686,11.8216988 L54.9309222,11.8216988 L54.9309222,14.4424857 L58.8063766,14.4424857 C59.3231038,14.4424857 59.7077166,14.5634418 59.9601743,14.805354 C60.2126724,15.0473092 60.3389215,15.4168925 60.3389215,15.9141468 C60.3389215,16.4114442 60.2126724,16.7743124 59.9601743,17.0027946 C59.7077166,17.2312768 59.3231038,17.3455179 58.8063766,17.3455179 L54.9309222,17.3455179 L54.9309222,21.4178209 C54.9309222,21.9822683 54.7870767,22.4291601 54.4993453,22.7584103 C54.2116543,23.0877036 53.8270416,23.2523502 53.3455476,23.2523502 Z M78.2100465,10.0717613 C78.3327138,9.70068276 78.5312578,9.41573079 78.8069432,9.21694781 C79.082207,9.01812239 79.3848707,8.91870968 79.7153559,8.91870968 C80.1191885,8.91870968 80.4711721,9.05789596 80.770885,9.33622609 C81.070598,9.61451376 81.2206653,9.9922566 81.2206653,10.4693697 C81.2206653,10.6814388 81.1717669,10.9465252 81.0739703,11.2645865 L77.3842551,22.079433 C77.2615878,22.4505116 77.0385946,22.7387745 76.7140109,22.9442218 C76.3898488,23.1496266 76.0319637,23.2523502 75.6403557,23.2523502 C75.2487476,23.2523502 74.8938133,23.1496266 74.5755527,22.9442218 C74.2572921,22.7387745 74.0372496,22.4505116 73.9145823,22.079433 L71.5282602,14.7038758 L69.0319168,22.079433 C68.8970249,22.4505116 68.6706594,22.7387745 68.3523988,22.9442218 C68.0341382,23.1496266 67.6855269,23.2523502 67.3061435,23.2523502 C66.9145354,23.2523502 66.5596011,23.1496266 66.2413405,22.9442218 C65.9235014,22.7387745 65.7030374,22.4505116 65.5807917,22.079433 L61.872571,11.2645865 C61.7868724,10.9995425 61.7440443,10.7476998 61.7440443,10.5091433 C61.7440443,10.018744 61.9062096,9.63111085 62.2304982,9.34615887 C62.5548289,9.06120689 62.9311352,8.91870968 63.3594592,8.91870968 C63.7021268,8.91870968 64.017268,9.01481146 64.3048407,9.20697258 C64.5922869,9.39917615 64.7975755,9.68743906 64.9198213,10.0717613 L67.4347123,17.9045661 L70.0962983,10.0717613 C70.2189656,9.70068276 70.4175096,9.41573079 70.6931949,9.21694781 C70.9684587,9.01812239 71.2711225,8.91870968 71.6016076,8.91870968 C71.9320928,8.91870968 72.2318058,9.01812239 72.501168,9.21694781 C72.7705303,9.41573079 72.9661236,9.70730462 73.0887909,10.0916693 L75.5851343,18.0834835 L78.2100465,10.0717613 Z M94.1588841,20.9236341 C94.2703352,21.1779034 94.3262742,21.4255288 94.3262742,21.6664246 C94.3262742,22.1080525 94.1618732,22.4828126 93.8334983,22.7906191 C93.5051234,23.0984256 93.1297767,23.2523502 92.7083124,23.2523502 C92.4234931,23.2523502 92.1630136,23.1720659 91.9273011,23.0114545 C91.6920155,22.850843 91.5058367,22.6099473 91.3696188,22.2887243 L90.5326684,20.2611707 L84.5079065,20.2611707 L83.6525944,22.2887243 C83.5159495,22.6099473 83.3272086,22.850843 83.0855178,23.0114545 C82.8434,23.1720659 82.5799315,23.2523502 82.2951121,23.2523502 C81.8736478,23.2523502 81.492323,23.0984256 81.1515646,22.7906191 C80.8103792,22.4828126 80.64,22.1080525 80.64,21.6664246 C80.64,21.4255288 80.695939,21.1779034 80.8073901,20.9236341 L85.7163604,10.0429042 C85.8777723,9.68156053 86.116474,9.40384459 86.4324654,9.2097992 C86.7484569,9.01571094 87.0990366,8.91870968 87.4833506,8.91870968 C87.8548541,8.91870968 88.2020177,9.01571094 88.5244144,9.2097992 C88.8468111,9.40384459 89.0885019,9.68156053 89.2499138,10.0429042 L94.1588841,20.9236341 Z M85.6608484,17.4907838 L89.3797265,17.4907838 L87.520501,13.0140233 L85.6608484,17.4907838 Z" id="text" fill="#FFFFFF"></path>
                </g>
            </g>
        </g>
    </g>
</svg>