<svg width="40" height="40" viewBox="0 0 40 40" fill="none" xmlns="http://www.w3.org/2000/svg">
<circle cx="20" cy="20" r="20" fill="white"/>
<path fill-rule="evenodd" clip-rule="evenodd" d="M19.93 36.86C10.595 36.86 3 29.265 3 19.93C3 10.595 10.595 3 19.93 3C29.265 3 36.86 10.595 36.86 19.93C36.86 29.265 29.265 36.86 19.93 36.86ZM19.93 4.86C11.62 4.86 4.86 11.62 4.86 19.93C4.86 28.24 11.62 35 19.93 35C28.24 35 35 28.24 35 19.93C35 11.62 28.24 4.86 19.93 4.86Z" fill="#0055A4"/>
<path fill-rule="evenodd" clip-rule="evenodd" d="M14.724 14.5771C14.984 13.8231 15.369 13.1821 15.881 12.6531C16.392 12.1241 17.012 11.7131 17.74 11.4181C18.468 11.1231 19.3 10.9761 20.236 10.9761C20.964 10.9761 21.644 11.0841 22.277 11.3011C22.91 11.5181 23.469 11.8341 23.954 12.2501C24.439 12.6661 24.821 13.1691 25.098 13.7581C25.375 14.3471 25.514 15.0241 25.514 15.7861C25.514 16.7571 25.302 17.5801 24.877 18.2561C24.452 18.9321 23.91 19.5821 23.252 20.2061C22.715 20.7431 22.285 21.1641 21.965 21.4671C21.644 21.7711 21.406 22.0701 21.25 22.3641C21.094 22.6581 20.99 23.0191 20.938 23.4431C20.886 23.8681 20.851 24.1331 20.834 24.9301H19.196C19.179 24.1331 19.222 23.8121 19.326 23.2741C19.43 22.7371 19.599 22.2511 19.833 21.8181C20.067 21.3851 20.379 20.9691 20.769 20.5701C21.159 20.1711 21.631 19.7211 22.186 19.2181C22.671 18.7681 23.074 18.2651 23.395 17.7101C23.716 17.1561 23.876 16.5401 23.876 15.8641C23.876 15.3441 23.776 14.8681 23.577 14.4341C23.378 14.0011 23.109 13.6321 22.771 13.3291C22.433 13.0261 22.038 12.7871 21.588 12.6141C21.137 12.4411 20.66 12.3541 20.158 12.3541C19.465 12.3541 18.849 12.4761 18.312 12.7181C17.775 12.9611 17.332 13.2941 16.986 13.7191C16.639 14.1441 16.379 14.6421 16.206 15.2141C16.032 15.7861 15.954 16.2541 15.972 16.9301H14.334C14.334 16.0111 14.464 15.3311 14.724 14.5771ZM18.936 26.9301H20.93V28.9301H18.936V26.9301Z" fill="#0055A4"/>
</svg>
